<?xml version="1.0" encoding="UTF-8" standalone="no"?>
<!-- Created with Inkscape (http://www.inkscape.org/) -->

<svg
   version="1.1"
   id="svg2"
   width="444.444"
   height="444.444"
   viewBox="0 0 444.444 444.444"
   sodipodi:docname="PG PIXS VECTORISE.ai"
   xmlns:inkscape="http://www.inkscape.org/namespaces/inkscape"
   xmlns:sodipodi="http://sodipodi.sourceforge.net/DTD/sodipodi-0.dtd"
   xmlns="http://www.w3.org/2000/svg"
   xmlns:svg="http://www.w3.org/2000/svg">
  <defs
     id="defs6">
    <clipPath
       clipPathUnits="userSpaceOnUse"
       id="clipPath16">
      <path
         d="M 0,333.333 H 333.333 V 0 H 0 Z"
         id="path14" />
    </clipPath>
    <clipPath
       clipPathUnits="userSpaceOnUse"
       id="clipPath24">
      <path
         d="M 0,333.333 H 333.333 V 0 H 0 Z"
         id="path22" />
    </clipPath>
  </defs>
  <sodipodi:namedview
     id="namedview4"
     pagecolor="#ffffff"
     bordercolor="#000000"
     borderopacity="0.25"
     inkscape:showpageshadow="2"
     inkscape:pageopacity="0.0"
     inkscape:pagecheckerboard="0"
     inkscape:deskcolor="#d1d1d1" />
  <g
     id="g8"
     inkscape:groupmode="layer"
     inkscape:label="PG PIXS VECTORISE"
     transform="matrix(1.3333333,0,0,-1.3333333,0,444.444)">
    <g
       id="g10">
      <g
         id="g12"
         clip-path="url(#clipPath16)">
        <g
           id="g18">
          <g
             id="g20" />
          <g
             id="g56">
            <g
               clip-path="url(#clipPath24)"
               id="g54">
              <g
                 transform="translate(117.0427,143.8212)"
                 id="g28">
                <path
                   d="m 0,0 -3.072,7.816 -3.776,-0.049 3.099,-7.904 z m 11.046,38.22 c 4.88,10.665 3.976,22.86 -2.078,32.596 -4.479,6.639 -11.206,11.562 -19.338,11.586 l -17.489,0.052 0.006,-59.341 14.464,0.026 C -3.024,23.158 6.567,28.433 11.046,38.22 M -16.669,-4.017 -27.855,-4.047 -27.85,-23.779 88.1,-23.81 c 18.896,-0.005 36.551,6.854 49.462,20.81 12.806,13.844 18.949,31.528 18.116,50.489 H 91.029 L 91.031,24.156 125.154,24.12 C 119.394,8.684 104.347,1.182 88.937,1.706 78.735,2.054 69.409,6.603 62.656,14.218 48.959,29.665 49.161,53.949 62.802,69.303 c 7.822,8.804 18.944,13.338 30.705,12.373 13.33,-1.072 24.964,-8.861 31.379,-20.675 l 21.021,15.264 C 133.467,96.35 110.892,107.983 87.23,106.809 L 6.48,106.774 C 29.235,98.992 45.41,77.431 44.445,53.152 43.787,34.577 36.008,17.576 20.571,6.325 L 34.661,6.216 34.635,2.629 14.476,2.631 11.118,1.034 11.01,8.204 7.204,8.112 v -8.648 c -6.379,-2.328 -12.977,-3.387 -20.053,-3.5 l -0.01,-18.765 -3.591,-0.019 -0.01,18.765 3.571,0.101 -0.012,11.166 -3.719,-0.013 z M -117.043,189.512 H 216.29 v -333.333 h -333.333 z"
                   style="fill:#000000;fill-opacity:1;fill-rule:nonzero;stroke:none"
                   id="path26" />
              </g>
              <g
                 transform="translate(128.0199,121.0151)"
                 id="g32">
                <path
                   d="m 0,0 -3.602,9.022 -3.72,-0.058 3.569,-9.002 z m 20.77,-0.035 c 1.673,0.003 2.953,1.528 2.952,3.016 l -0.01,10.32 c -0.002,1.707 -1.478,2.937 -3.075,2.941 L 7.398,16.271 7.328,21.73 3.752,21.71 3.824,15.554 C 3.843,13.891 5.386,12.71 6.994,12.706 L 20.135,12.672 20.147,3.493 3.77,3.453 3.831,-0.064 Z m -37.089,0.044 0.017,12.666 13.256,0.043 c 1.743,0.005 2.87,1.282 3.095,2.913 l 0.003,6.352 -3.57,-0.055 -0.072,-5.661 -13.083,-0.016 c -1.904,-0.003 -3.277,-1.419 -3.282,-3.347 l -0.032,-12.925 z m -11.327,18.78 0.049,11.216 3.719,0.013 0.012,-11.166 -3.571,-0.101 0.01,-18.765 3.591,0.02 0.009,18.764 c 7.077,0.113 13.675,1.172 20.054,3.5 v 8.648 l 3.806,0.092 0.107,-7.17 3.359,1.597 20.159,-0.001 0.026,3.586 -14.091,0.109 c 15.437,11.251 23.217,28.252 23.874,46.827 0.965,24.279 -15.209,45.84 -37.964,53.622 l 80.75,0.036 c 23.662,1.173 46.237,-10.46 58.677,-30.545 L 113.908,83.807 C 107.494,95.621 95.86,103.41 82.529,104.482 70.769,105.447 59.647,100.913 51.825,92.109 38.184,76.755 37.982,52.472 51.679,37.024 58.432,29.409 67.758,24.86 77.96,24.513 c 15.41,-0.525 30.456,6.977 36.217,22.414 l -34.123,0.035 -0.003,23.333 h 64.65 C 145.533,51.334 139.391,33.651 126.584,19.806 113.674,5.85 96.019,-1.009 77.123,-1.004 l -115.951,0.031 -0.004,19.732 z"
                   style="fill:#ffffff;fill-opacity:1;fill-rule:nonzero;stroke:none"
                   id="path30" />
              </g>
              <g
                 transform="translate(128.0888,182.0417)"
                 id="g36">
                <path
                   d="m 0,0 c -4.479,-9.787 -14.07,-15.063 -24.435,-15.081 l -14.464,-0.026 -0.006,59.341 17.489,-0.052 C -13.284,44.158 -6.557,39.234 -2.078,32.596 3.976,22.86 4.88,10.664 0,0"
                   style="fill:#ffffff;fill-opacity:1;fill-rule:nonzero;stroke:none"
                   id="path34" />
              </g>
              <g
                 transform="translate(117.0427,143.8212)"
                 id="g40">
                <path
                   d="m 0,0 -3.749,-0.137 -3.099,7.904 3.776,0.049 z"
                   style="fill:#ffffff;fill-opacity:1;fill-rule:nonzero;stroke:none"
                   id="path38" />
              </g>
              <g
                 transform="translate(148.79,120.9803)"
                 id="g44">
                <path
                   d="M 0,0 -16.939,-0.029 -17,3.487 -0.623,3.528 -0.635,12.707 -13.776,12.74 c -1.608,0.004 -3.151,1.186 -3.17,2.849 l -0.072,6.155 3.576,0.021 0.07,-5.459 13.239,-0.03 C 1.464,16.273 2.94,15.043 2.942,13.336 L 2.952,3.016 C 2.953,1.528 1.673,0.003 0,0"
                   style="fill:#000000;fill-opacity:1;fill-rule:nonzero;stroke:none"
                   id="path42" />
              </g>
              <g
                 transform="translate(111.7011,121.0244)"
                 id="g48">
                <path
                   d="m 0,0 -3.668,-0.03 0.032,12.925 c 0.005,1.928 1.378,3.344 3.282,3.346 l 13.083,0.017 0.072,5.66 3.57,0.056 -0.003,-6.352 C 16.143,13.991 15.016,12.714 13.273,12.708 L 0.017,12.666 Z"
                   style="fill:#000000;fill-opacity:1;fill-rule:nonzero;stroke:none"
                   id="path46" />
              </g>
              <g
                 transform="translate(128.0199,121.0151)"
                 id="g52">
                <path
                   d="m 0,0 -3.753,-0.038 -3.569,9.002 3.72,0.058 z"
                   style="fill:#000000;fill-opacity:1;fill-rule:nonzero;stroke:none"
                   id="path50" />
              </g>
            </g>
          </g>
        </g>
      </g>
    </g>
  </g>
</svg>
